<?xml version="1.0" encoding="iso-8859-1"?>
<!-- Generator: Adobe Illustrator 18.1.1, SVG Export Plug-In . SVG Version: 6.00 Build 0)  -->
<svg version="1.1" id="Capa_1" xmlns="http://www.w3.org/2000/svg" xmlns:xlink="http://www.w3.org/1999/xlink" x="0px" y="0px"
	 viewBox="0 0 28.943 28.943" style="enable-background:new 0 0 28.943 28.943;" xml:space="preserve">
<g>
	<g>
		<path style="fill:#010002;" d="M0.972,20.972L0.43,19.995c-0.695,4.377-0.448,7.987,0.042,8.477s4.1,0.736,8.477,0.042
			c-0.315-0.175-0.64-0.354-0.976-0.542C5.487,26.591,2.353,23.456,0.972,20.972z"/>
		<path style="fill:#010002;" d="M16.472,2.472l-1.354-0.903c-3.167,1-6.299,2.556-8.646,4.903
			c-2.346,2.346-3.903,5.479-4.902,8.646c0.29,0.435,0.591,0.887,0.902,1.354c2.209,3.312,6.687,7.791,10,10l1.354,0.902
			c3.167-1,6.298-2.555,8.646-4.902s3.902-5.479,4.902-8.646c-0.291-0.436-0.591-0.888-0.902-1.354
			C24.263,9.159,19.784,4.681,16.472,2.472z M20.179,12.179c-0.195,0.195-0.451,0.293-0.707,0.293s-0.512-0.098-0.707-0.293
			l-0.293-0.293l-0.586,0.586l0.293,0.293c0.391,0.391,0.391,1.023,0,1.414c-0.195,0.195-0.451,0.293-0.707,0.293
			s-0.512-0.098-0.707-0.293l-0.293-0.293l-0.586,0.586l0.293,0.293c0.391,0.391,0.391,1.023,0,1.414
			c-0.195,0.195-0.451,0.293-0.707,0.293s-0.512-0.098-0.707-0.293l-0.293-0.293l-0.586,0.586l0.293,0.293
			c0.391,0.391,0.391,1.023,0,1.414c-0.195,0.195-0.451,0.293-0.707,0.293s-0.512-0.098-0.707-0.293l-0.293-0.293l-0.586,0.586
			l0.293,0.293c0.391,0.391,0.391,1.023,0,1.414c-0.195,0.195-0.451,0.293-0.707,0.293s-0.512-0.098-0.707-0.293l-2-2
			c-0.391-0.391-0.391-1.023,0-1.414s1.023-0.391,1.414,0l0.293,0.293l0.586-0.586l-0.293-0.293c-0.391-0.391-0.391-1.023,0-1.414
			c0.391-0.391,1.023-0.391,1.414,0l0.293,0.293l0.586-0.586l-0.293-0.293c-0.391-0.391-0.391-1.023,0-1.414s1.023-0.391,1.414,0
			l0.293,0.293l0.586-0.586l-0.293-0.293c-0.391-0.391-0.391-1.023,0-1.414c0.391-0.391,1.023-0.391,1.414,0l0.293,0.293
			l0.586-0.586l-0.293-0.293c-0.391-0.391-0.391-1.023,0-1.414s1.023-0.391,1.414,0l2,2C20.57,11.156,20.57,11.788,20.179,12.179z"
			/>
		<path style="fill:#010002;" d="M28.472,0.472c-0.49-0.49-4.1-0.737-8.477-0.042c0.316,0.175,0.641,0.355,0.977,0.542
			c2.484,1.381,5.619,4.515,7,7l0.542,0.976C29.208,4.572,28.962,0.962,28.472,0.472z"/>
	</g>
</g>
<g>
</g>
<g>
</g>
<g>
</g>
<g>
</g>
<g>
</g>
<g>
</g>
<g>
</g>
<g>
</g>
<g>
</g>
<g>
</g>
<g>
</g>
<g>
</g>
<g>
</g>
<g>
</g>
<g>
</g>
</svg>
